<svg xmlns="http://www.w3.org/2000/svg" xmlns:xlink="http://www.w3.org/1999/xlink" viewBox="0 0 50 50" height="50" width="50"><defs><radialGradient r="39.221" fy="164.526" fx="26.319" cy="164.526" cx="26.319" gradientTransform="matrix(.99693 -.0783 .03887 .49491 -5.855 84.431)" gradientUnits="userSpaceOnUse" id="b" xlink:href="#a"/><linearGradient id="a"><stop offset="0" stop-color="#beb106"/><stop offset="1" stop-color="#ffef15"/></linearGradient></defs><path d="M18.179 7.204c-.353 4.119 1.53 9.533 1.53 9.533l1.177 2.353 2.706.118-3.53-5.649zM38.058 14.302c-4.044.857-8.679 4.228-8.679 4.228l-1.911 1.81.672 2.624 4.382-5.017zM38.213 33.765c-2.39-3.374-7.322-6.293-7.322-6.293l-2.419-1.038-2.143 1.658 6.343 2.035zM20.567 41.647c2.118-3.55 2.79-9.243 2.79-9.243l-.03-2.631-2.384-1.289.708 6.624zM5.76 26.358c3.999 1.046 9.653.109 9.653.109l2.52-.76.574-2.648-6.165 2.521z" fill="#6ba509"/><path d="M8.287 139.964c-31.405 22.32-74.794-4.473-52.122-36.6 22.672-32.126 56.98-13.29 55.2 24.599z" fill="#fff" stroke="#0f8617" stroke-width="3" transform="matrix(.30874 0 0 .30875 15.943 -20.473)"/><path d="M25.151 128.97c-28.11-23.254-14.238-69.503 20.7-56.64 34.94 12.863 26.12 48.856-8.97 56.513z" fill="#fff" stroke="#0f8617" stroke-width="3" transform="matrix(.30874 0 0 .30875 15.943 -20.473)"/><path d="M39.74 142.151c13.557-36.803 68.728-40.37 69.067-.662.338 39.707-41.8 44.455-64.19 12.32z" fill="#fff" stroke="#0f8617" stroke-width="3" transform="matrix(.30874 0 0 .30875 15.943 -20.473)"/><path d="M35.033 160.613c38.931-4.759 67.313 42.686 32.149 61.131-35.165 18.445-58.643-16.866-40.29-51.466z" fill="#fff" stroke="#0f8617" stroke-width="3" transform="matrix(.30874 0 0 .30875 15.943 -20.473)"/><path d="M17.517 160.27c14.31 32.935-23.603 68.737-49.963 42.265-26.36-26.472 1.266-55.176 38.737-47.144z" fill="#fff" stroke="#0f8617" stroke-width="3" transform="matrix(.30874 0 0 .30875 15.943 -20.473)"/><path d="M16.927 117.334l-1.205 1.133c4.517 1.264-2.457.537-3.107 2.86-1.952-3.317-7.976-1.9-8.007 1.861 1.138 2.97 4.262 4.606 6.756 4.775 2.26 2.054 2.285 6.226-1.759 5.006-2.747-1.256-6.329.228-4.927 3.558 1.187 2.718-2.292 2.704-1.728.006-2.988-3.282-8.598-2.227-8.825 2.705.157 2.888 4.8 2.814 5.087 4.285-1.861.285-5.056 1.955-1.218.837 2.89-1.034 2.728.225.303.817 1.746 2.14-2.109 3.229-1.728 4.46-1.226.889-1.365 3.887 1.807 3.918 4.118 1.008-2.08 3.094-.968 5.456.41 4.525 9.567 4.061 8.14-.822 3.392-1.92 3.046 2.63 1.977 4.673 2.073 1.41 5.26 1.371 2.639 4.655-1.953 2.872.138 7.495 3.815 7.057 2.06-.653 3.684-4.122 3.66-.365-1.219 1.751 1.392 3.494.48 5.874 1.457 2.776 1-5.218.578-6.637-.974-2.125-.203-4.185.204-5.481-2.692-2.675 3.05.415 4.224-1.835 3.368-1.977.977 5.438 2.369 7.264.621 4.01-1.933 7.685-3.602 11.183-.128 3.746 1.511-1.681 2.354-2.934 1.573-1.825 1.283-6.774 4.86-4.402 3.29 1.28 4.742-2.926 6.3-4.866-.648-2.813 3.718-.881 4.561-1.891 1.562 2.594 1.203-1.44 3.905.409 4.964.972 4.536-6.756 1.13-8.357 2.765-1.379 7.604-.115 10.947.919 1.385.123 5.589 2.206 5.474 1.351-1.737-3.61-4.989-2.875-7.583-5.66-1.023-1.736-2.205-4.374-2.764-5.638 3.87 1.733 8.889-2.45 5.162-5.845-2.722-3.387-4.637 1.464-6.498 1.891-.812-1.908-2.904-3.467-.93-5.644-.606-2.913-3.125-4.79.343-7.15 1.174-.444 5.156 1.894 3.512-.524 2.79-1.456 5.461-5.49.726-6.498-3.6-.804-6.247 3.057-4.749 5.493-1.111-.637-1.04-3.612-3.574-3.668-1.047-2.632-2.854-4.96-5.51-5.165 2.623-1.763 2.678-6.34 1.261-8.809-.887-2.51-5.721 3.027-3.89 5.019 2.848.604-1.753 7.35-1.546 2.864-2.135-4.822-7.455 2.695-8.686-2.766.764-2.423 1.73-7.92-1.398-8.71-3.762-1.73-6.483 1.445-4.95 5.047-.816 2.966 2.56 2.832 3.373 3.41-1.404 1.686-3.305 1.217-3.767-1.572l-3.028-3.547zm-2.902 8.62c2.792.694-1.695.87 0 0zM2.613 143.633c.508.447-.468.24 0 0zm-7.396 1.324c-3.566.99 1.294 1.05 0 0zm-2.513 1.19c-2.93.497-.369 1.688.043.005zm-2.803.81c-1.62.282.901.321 0 0zm-1.422.084c-1.678.587 1.182.666 0 0zm13.105.084c.159.242-.288.194 0 0zm-15.325.28c-.491.44.709.068 0 0zm-1.958.406c-1.413.763 1.134.681 0 0zm70.073.404c.684.375-.437.413 0 0zm-70.946.087c-1.42.725 1.119.51 0 0zm71.706 1.168c1.219 1.192-1.287.471 0 0zm-47.152 1.34c4.527 1.265-4.164 5.115-.875 1.3.757-1.104-1.513-.959.875-1.3zm-8.824.039c1.227-.075-1.219 1.927 0 0zm-6.358.999c-1.465.187-3.278 1.173-.628 1.145.29-.263 1.169-.685.628-1.145zm8.705 4.322c.144.291-.391.139 0 0zm-.684.42c.364.372-1.004.883-.293.205zm11.974 11.683c1.398 1.186-.59.863 0 0zm.489 1.084c.28.707-1.017.532 0 0zm27.53.382c.422.16-.304.26 0 0zm-.628 2.178c-.779.686.867.323 0 0zm-1.415.004c-1.92.951 1.793.566 0 0zm-9.175 1.17c1.124.366-1.033.39 0 0z" fill="url(#b)" transform="matrix(.30874 0 0 .30875 15.943 -20.473)"/></svg>
