<?xml version="1.0" encoding="UTF-8" standalone="no"?>
<!-- Created with Inkscape (http://www.inkscape.org/) -->

<svg
   xmlns:dc="http://purl.org/dc/elements/1.1/"
   xmlns:cc="http://creativecommons.org/ns#"
   xmlns:rdf="http://www.w3.org/1999/02/22-rdf-syntax-ns#"
   xmlns:svg="http://www.w3.org/2000/svg"
   xmlns="http://www.w3.org/2000/svg"
   xmlns:xlink="http://www.w3.org/1999/xlink"
   xmlns:sodipodi="http://sodipodi.sourceforge.net/DTD/sodipodi-0.dtd"
   xmlns:inkscape="http://www.inkscape.org/namespaces/inkscape"
   width="50"
   height="50"
   viewBox="0 0 50 50"
   version="1.1"
   id="svg1214"
   inkscape:version="0.92.2 5c3e80d, 2017-08-06"
   sodipodi:docname="mansicca_.svg">
  <defs
     id="defs1208">
    <radialGradient
       inkscape:collect="always"
       xlink:href="#linearGradient1082"
       id="radialGradient1163"
       gradientUnits="userSpaceOnUse"
       gradientTransform="matrix(0.99692928,-0.07830709,0.03887446,0.49491166,-5.8552633,84.431299)"
       cx="26.318983"
       cy="164.52597"
       fx="26.318983"
       fy="164.52597"
       r="39.220852" />
    <linearGradient
       inkscape:collect="always"
       id="linearGradient1082">
      <stop
         style="stop-color:#beb106;stop-opacity:1"
         offset="0"
         id="stop1078" />
      <stop
         style="stop-color:#ffef15;stop-opacity:1"
         offset="1"
         id="stop1080" />
    </linearGradient>
  </defs>
  <sodipodi:namedview
     id="base"
     pagecolor="#ffffff"
     bordercolor="#666666"
     borderopacity="1.0"
     inkscape:pageopacity="0.0"
     inkscape:pageshadow="2"
     inkscape:zoom="7.4863375"
     inkscape:cx="6.6145829"
     inkscape:cy="43.291045"
     inkscape:document-units="px"
     inkscape:current-layer="layer1"
     showgrid="false"
     units="px"
     fit-margin-top="0"
     fit-margin-left="0"
     fit-margin-right="0"
     fit-margin-bottom="0"
     inkscape:window-width="1920"
     inkscape:window-height="1016"
     inkscape:window-x="0"
     inkscape:window-y="27"
     inkscape:window-maximized="1" />
  <metadata
     id="metadata1211">
    <rdf:RDF>
      <cc:Work
         rdf:about="">
        <dc:format>image/svg+xml</dc:format>
        <dc:type
           rdf:resource="http://purl.org/dc/dcmitype/StillImage" />
        <dc:title></dc:title>
      </cc:Work>
    </rdf:RDF>
  </metadata>
  <g
     inkscape:label="Ebene 1"
     inkscape:groupmode="layer"
     id="layer1"
     transform="translate(105.01309,-142.24729)">
    <g
       transform="matrix(0.30874494,0,0,0.30874727,-89.070285,121.7745)"
       id="g1151">
      <path
         style="fill:#6ba509;fill-opacity:1;stroke:none;stroke-width:0.26458332px;stroke-linecap:butt;stroke-linejoin:miter;stroke-opacity:1"
         d="M 7.2422717,89.642319 C 6.0987553,102.98335 12.197511,120.51727 12.197511,120.51727 l 3.811721,7.62344 8.766961,0.38117 -11.435166,-18.29626 z"
         id="path1129"
         inkscape:connector-curvature="0" />
      <path
         inkscape:connector-curvature="0"
         id="path1131"
         d="m 71.63012,112.63189 c -13.099402,2.77424 -28.111428,13.69543 -28.111428,13.69543 l -6.190563,5.85858 2.177445,8.5008 14.194162,-16.24937 z"
         style="fill:#6ba509;fill-opacity:1;stroke:none;stroke-width:0.26458332px;stroke-linecap:butt;stroke-linejoin:miter;stroke-opacity:1"
         inkscape:transform-center-x="-30.536687"
         inkscape:transform-center-y="-17.87182" />
      <path
         inkscape:transform-center-y="19.26704"
         inkscape:transform-center-x="-28.943203"
         style="fill:#6ba509;fill-opacity:1;stroke:none;stroke-width:0.26458332px;stroke-linecap:butt;stroke-linejoin:miter;stroke-opacity:1"
         d="M 72.130627,175.6691 C 64.39147,164.74224 48.414559,155.28859 48.414559,155.28859 l -7.832445,-3.36138 -6.941461,5.36852 20.544503,6.59087 z"
         id="path1133"
         inkscape:connector-curvature="0" />
      <path
         inkscape:connector-curvature="0"
         id="path1135"
         d="m 14.977642,201.19952 c 6.858491,-11.50008 9.035061,-29.93634 9.035061,-29.93634 l -0.09711,-8.52272 -7.719007,-4.17394 2.290205,21.45393 z"
         style="fill:#6ba509;fill-opacity:1;stroke:none;stroke-width:0.26458332px;stroke-linecap:butt;stroke-linejoin:miter;stroke-opacity:1"
         inkscape:transform-center-x="4.4472645"
         inkscape:transform-center-y="35.351905" />
      <path
         inkscape:transform-center-y="2.607719"
         inkscape:transform-center-x="36.280957"
         style="fill:#6ba509;fill-opacity:1;stroke:none;stroke-width:0.26458332px;stroke-linecap:butt;stroke-linejoin:miter;stroke-opacity:1"
         d="m -32.983606,151.67963 c 12.953784,3.38973 31.2680669,0.35325 31.2680669,0.35325 l 8.1595024,-2.46347 1.8626027,-8.57529 -19.970685,8.16626 z"
         id="path1137"
         inkscape:connector-curvature="0" />
      <path
         style="opacity:1;vector-effect:none;fill:#ffffff;fill-opacity:1;stroke:#0f8617;stroke-width:3;stroke-linecap:butt;stroke-linejoin:miter;stroke-miterlimit:4;stroke-dasharray:none;stroke-dashoffset:0;stroke-opacity:1"
         d="M 8.2867045,139.96384 C -23.118211,162.28338 -66.507052,135.49069 -43.834802,103.36452 -21.162551,71.238352 13.144603,90.073076 11.364275,127.96279 Z"
         id="path1139"
         inkscape:connector-curvature="0"
         sodipodi:nodetypes="czcc" />
      <path
         sodipodi:nodetypes="czcc"
         inkscape:connector-curvature="0"
         id="path1141"
         d="M 25.151245,128.96961 C -2.9584496,105.71639 10.912979,59.466861 45.851725,72.329888 80.790469,85.192917 71.971772,121.18608 36.881596,128.8433 Z"
         style="opacity:1;vector-effect:none;fill:#ffffff;fill-opacity:1;stroke:#0f8617;stroke-width:3;stroke-linecap:butt;stroke-linejoin:miter;stroke-miterlimit:4;stroke-dasharray:none;stroke-dashoffset:0;stroke-opacity:1"
         inkscape:transform-center-x="-14.605785"
         inkscape:transform-center-y="-45.482054" />
      <path
         inkscape:transform-center-y="-3.4885852"
         inkscape:transform-center-x="-52.007518"
         style="opacity:1;vector-effect:none;fill:#ffffff;fill-opacity:1;stroke:#0f8617;stroke-width:3;stroke-linecap:butt;stroke-linejoin:miter;stroke-miterlimit:4;stroke-dasharray:none;stroke-dashoffset:0;stroke-opacity:1"
         d="m 39.739692,142.15114 c 13.557295,-36.8034 68.728808,-40.36925 69.066848,-0.66194 0.33805,39.70729 -41.799565,44.45483 -64.18982,12.32021 z"
         id="path1143"
         inkscape:connector-curvature="0"
         sodipodi:nodetypes="czcc" />
      <path
         sodipodi:nodetypes="czcc"
         inkscape:connector-curvature="0"
         id="path1145"
         d="m 35.032619,160.61257 c 38.93134,-4.75828 67.313861,42.68689 32.149012,61.1319 C 32.016808,240.18948 8.5390522,204.87783 26.891254,170.27791 Z"
         style="opacity:1;vector-effect:none;fill:#ffffff;fill-opacity:1;stroke:#0f8617;stroke-width:3;stroke-linecap:butt;stroke-linejoin:miter;stroke-miterlimit:4;stroke-dasharray:none;stroke-dashoffset:0;stroke-opacity:1"
         inkscape:transform-center-x="-29.55543"
         inkscape:transform-center-y="46.017666" />
      <path
         inkscape:transform-center-y="36.798389"
         inkscape:transform-center-x="37.839143"
         style="opacity:1;vector-effect:none;fill:#ffffff;fill-opacity:1;stroke:#0f8617;stroke-width:3;stroke-linecap:butt;stroke-linejoin:miter;stroke-miterlimit:4;stroke-dasharray:none;stroke-dashoffset:0;stroke-opacity:1"
         d="m 17.516563,160.27024 c 14.310573,32.93509 -23.6025414,68.73717 -49.962126,42.26473 -26.359579,-26.47241 1.265697,-55.17637 38.7365189,-47.14424 z"
         id="path1147"
         inkscape:connector-curvature="0"
         sodipodi:nodetypes="czcc" />
      <path
         style="fill:url(#radialGradient1163);fill-opacity:1;stroke-width:0.99999994"
         d="m 16.927282,117.33371 -1.205366,1.13305 c 4.517486,1.26466 -2.45681,0.53698 -3.106939,2.85995 -1.951521,-3.31685 -7.9759894,-1.8989 -8.0067774,1.86135 1.137992,2.97069 4.262091,4.60622 6.7560754,4.77473 2.258977,2.05373 2.284352,6.22599 -1.7591374,5.00637 -2.74754,-1.25597 -6.328862,0.22803 -4.927088,3.55813 1.187031,2.71804 -2.2916,2.70347 -1.727756,0.006 -2.98834002,-3.28221 -8.598476,-2.22704 -8.825257,2.70423 0.157447,2.88847 4.799687,2.81421 5.08709998,4.285 -1.86132998,0.28501 -5.05572398,1.9556 -1.21863298,0.83768 2.88966198,-1.03454 2.72817298,0.22459 0.303735,0.81715 1.74555098,2.14053 -2.108991,3.22864 -1.72788,4.45951 -1.226372,0.88876 -1.365781,3.88671 1.806331,3.91785 4.11801,1.00784 -2.079949,3.09416 -0.967753,5.45609 0.409192,4.52503 9.56725,4.06147 8.140921,-0.82172 3.390778,-1.91925 3.045434,2.62931 1.976563,4.67272 2.073057,1.41067 5.2587024,1.37124 2.6381774,4.65522 -1.9523404,2.87159 0.138293,7.49509 3.815065,7.05686 2.059785,-0.6526 3.683888,-4.12205 3.66071,-0.36508 -1.219113,1.75118 1.391909,3.49455 0.479855,5.874 1.456643,2.77573 0.999343,-5.21765 0.578054,-6.63643 -0.974265,-2.12568 -0.20378,-4.18523 0.203798,-5.48183 -2.692192,-2.67475 3.05067,0.41512 4.223663,-1.83485 3.368425,-1.9771 0.977191,5.43828 2.368869,7.26427 0.621864,4.01012 -1.932141,7.6847 -3.60161,11.18334 -0.128487,3.74573 1.511404,-1.68159 2.353834,-2.93479 1.572909,-1.82464 1.282748,-6.77366 4.860723,-4.4018 3.290182,1.27978 4.741186,-2.92606 6.299629,-4.86559 -0.648229,-2.81284 3.717437,-0.88122 4.561054,-1.8911 1.562129,2.59382 1.202333,-1.44028 3.905101,0.40871 4.963584,0.97264 4.535644,-6.75606 1.130162,-8.35699 2.764782,-1.37834 7.603182,-0.11488 10.946542,0.91916 1.38489,0.12312 5.5886,2.20567 5.47421,1.35156 -1.73775,-3.61001 -4.98898,-2.87507 -7.58336,-5.66088 -1.02256,-1.73584 -2.20471,-4.37387 -2.7636,-5.63763 3.86989,1.73336 8.88842,-2.45057 5.1617,-5.84458 -2.72172,-3.38772 -4.63735,1.46362 -6.49806,1.89098 -0.81242,-1.90798 -2.90357,-3.4672 -0.92965,-5.64469 -0.60596,-2.91262 -3.124924,-4.78954 0.34257,-7.14928 1.17383,-0.44421 5.15584,1.89383 3.51236,-0.52482 2.79069,-1.45581 5.46116,-5.48977 0.72531,-6.49755 -3.60029,-0.80364 -6.24625,3.05742 -4.74804,5.4927 -1.11171,-0.63622 -1.04071,-3.61125 -3.574275,-3.66762 -1.04707,-2.63248 -2.854481,-4.96077 -5.510151,-5.16464 2.622828,-1.76312 2.678391,-6.33999 1.260965,-8.80926 -0.886947,-2.51088 -5.721511,3.02688 -3.889094,5.01843 2.847175,0.60412 -1.753842,7.3513 -1.546732,2.86449 -2.135251,-4.82234 -7.455695,2.69478 -8.686187,-2.76567 0.764175,-2.42313 1.729946,-7.9207 -1.397868,-8.71089 -3.762357,-1.7287 -6.483057,1.4457 -4.950997,5.04774 -0.815114,2.96529 2.561537,2.83149 3.374105,3.41001 -1.40448,1.6856 -3.305353,1.21629 -3.767615,-1.57265 -3.027356,-3.54687 -3.027356,-3.54687 -3.027356,-3.54687 z m -2.902577,8.62093 c 2.792413,0.69383 -1.694546,0.86856 0,0 z M 2.6125356,143.63236 c 0.508815,0.44695 -0.46707,0.2394 0,0 z m -7.395235,1.32354 c -3.565818,0.99062 1.293438,1.05101 0,0 z m -2.513032,1.19011 c -2.9297916,0.49709 -0.368824,1.68811 0.04232,0.005 z m -2.8028956,0.81038 c -1.620963,0.28184 0.9011206,0.32092 0,0 z m -1.421996,0.0837 c -1.678081,0.58644 1.181226,0.6655 0,0 z m 13.1043876,0.0837 c 0.159175,0.24201 -0.287816,0.19437 0,0 z m -15.3244936,0.28066 c -0.491655,0.43915 0.708316,0.0677 0,0 z m -1.957848,0.40518 c -1.413372,0.76289 1.133308,0.68164 0,0 z m 70.072274,0.40458 c 0.68456,0.37517 -0.4368,0.41263 0,0 z m -70.94523,0.0871 c -1.42081,0.72505 1.118119,0.50908 0,0 z m 71.70561,1.16771 c 1.21892,1.19198 -1.28723,0.47132 0,0 z m -47.1519384,1.3401 c 4.5265974,1.26533 -4.164254,5.11471 -0.875408,1.299 0.757688,-1.10317 -1.512947,-0.95768 0.875408,-1.299 z m -8.82428902,0.0389 c 1.226847,-0.075 -1.21885198,1.92729 0,0 z m -6.35757898,0.99901 c -1.465024,0.18731 -3.2777886,1.17282 -0.628179,1.14502 0.29,-0.26351 1.168939,-0.68493 0.628179,-1.14502 z m 8.70467,4.32243 c 0.144044,0.29072 -0.391065,0.13809 0,0 z m -0.68400902,0.41899 c 0.36433702,0.37291 -1.003444,0.88326 -0.292927,0.20551 z M 12.795335,168.27221 c 1.397335,1.18606 -0.590886,0.86304 0,0 z m 0.488308,1.08397 c 0.280966,0.70637 -1.016574,0.53211 0,0 z m 27.53048,0.38219 c 0.421983,0.15878 -0.303836,0.26018 0,0 z m -0.628185,2.17777 c -0.778629,0.68587 0.867436,0.32246 0,0 z m -1.41494,0.004 c -1.919516,0.95106 1.792858,0.56611 0,0 z m -9.175497,1.16926 c 1.124565,0.36641 -1.032029,0.38993 0,0 z"
         id="path1149"
         inkscape:connector-curvature="0"
         sodipodi:nodetypes="cccccccccccccccccccccccccccccccccccccccccccccccccccccccccccccccccccccccccccccccccccccccccccccccccccccccc" />
    </g>
  </g>
</svg>
